<svg xmlns="http://www.w3.org/2000/svg" width="512" height="512" viewBox="0 0 512 512"><g fill="#008cdb"><path d="M255.999 46c-5.66 0-11.166 1.171-16.032 3.929l-154.192 89.04c-9.98 5.747-16.041 16.603-16.041 28.154v177.754c0 11.543 6.061 22.385 16.041 28.149l40.269 23.247c19.56 9.635 26.778 9.493 35.684 9.493 28.966 0 45.5-17.577 45.5-48.126V182.18c0-2.479-2.151-4.256-4.584-4.256H183.33c-2.47 0-4.585 1.777-4.585 4.256v175.46c0 13.54-14.1 27.157-36.987 15.719L99.85 348.804c-1.477-.803-2.616-2.233-2.616-3.928V167.123c0-1.686 1.121-3.408 2.616-4.256l153.863-88.712a4.53 4.53 0 0 1 4.584 0l153.856 88.712c1.468.88 2.625 2.516 2.625 4.256v177.754c0 1.694-.857 3.436-2.297 4.251l-154.185 88.717c-1.322.789-3.145.789-4.584 0L214.1 414.276c-1.176-.693-2.789-.639-3.928 0-10.928 6.201-12.988 6.917-23.242 10.477-2.525.879-6.362 2.246 1.312 6.549l51.726 30.441c4.922 2.85 10.409 4.258 16.032 4.258 5.714 0 11.12-1.408 16.042-4.258l154.193-88.716c9.972-5.801 16.033-16.606 16.033-28.149V167.123c0-11.552-6.061-22.385-16.033-28.154l-154.193-89.04C267.209 47.171 261.668 46 255.999 46z"/><path d="M297.251 170.725c-43.905 0-70.055 18.68-70.055 49.752 0 33.71 25.949 42.975 68.086 47.14 50.413 4.936 54.341 12.337 54.341 22.263 0 17.207-13.717 24.55-46.157 24.55-40.751 0-49.701-10.176-52.7-30.447-.355-2.169-2.032-3.924-4.256-3.924h-19.97c-2.461 0-4.584 2.119-4.584 4.58 0 25.95 14.119 56.638 81.511 56.638 48.791 0 76.93-19.158 76.93-52.709 0-33.26-22.725-42.191-70.057-48.453-47.815-6.321-52.373-9.416-52.373-20.617 0-9.247 3.865-21.606 39.284-21.606 31.637 0 43.321 6.822 48.116 28.15.419 2.01 2.188 3.601 4.256 3.601h19.97c1.23 0 2.427-.752 3.274-1.632.838-.943 1.431-2.005 1.312-3.271-3.091-36.744-27.591-54.015-76.928-54.015z"/></g></svg>